<?xml version="1.0" encoding="UTF-8" standalone="no"?>
<svg
        xmlns:inkscape="http://www.inkscape.org/namespaces/inkscape"
        xmlns:sodipodi="http://sodipodi.sourceforge.net/DTD/sodipodi-0.dtd"
        id="Calque_1"
        data-name="Calque 1"
        viewBox="0 0 249.19001 143.57632"
        version="1.1"
        sodipodi:docname="logo.svg"
        inkscape:version="1.4.2 (ebf0e940, 2025-05-08)"
        width="249.19"
        height="143.57632"
        xmlns="http://www.w3.org/2000/svg"
>
    <sodipodi:namedview
            id="namedview8"
            pagecolor="#ffffff"
            bordercolor="#000000"
            borderopacity="0.25"
            inkscape:showpageshadow="2"
            inkscape:pageopacity="0.0"
            inkscape:pagecheckerboard="0"
            inkscape:deskcolor="#d1d1d1"
            inkscape:zoom="1.8237953"
            inkscape:cx="282.10403"
            inkscape:cy="63.055323"
            inkscape:window-width="2560"
            inkscape:window-height="1309"
            inkscape:window-x="2567"
            inkscape:window-y="33"
            inkscape:window-maximized="0"
            inkscape:current-layer="Calque_1"/>
    <defs
            id="defs1">
        <style
                id="style1">
            .cls-1 {
            fill: #a31548;
            }

            .cls-2 {
            fill: #3b98d4;
            }
        </style>
    </defs>
    <g
            id="g8"
            transform="translate(-35.51,-35.47367)">
        <path
                class="cls-1"
                d="m 38.41,125.08 c -1.6,0 -2.9,-1.3 -2.9,-2.9 V 96.86 c 0,-7.97 6.45,-14.45 14.37,-14.45 7.92,0 14.38,6.48 14.38,14.45 v 16.86 c 0,1.99 1.5,3.56 3.41,3.56 1.91,0 3.42,-1.56 3.42,-3.56 V 96.86 c 0,-7.97 6.45,-14.45 14.37,-14.45 1.6,0 2.9,1.3 2.9,2.9 0,1.6 -1.3,2.9 -2.9,2.9 -4.73,0 -8.58,3.88 -8.58,8.65 v 16.86 c 0,5.16 -4.13,9.35 -9.21,9.35 -5.08,0 -9.21,-4.2 -9.21,-9.35 V 96.86 c 0,-4.77 -3.85,-8.65 -8.58,-8.65 -4.73,0 -8.58,3.88 -8.58,8.65 v 25.32 c 0,1.6 -1.3,2.9 -2.9,2.9 z"
                id="path6"
                style="fill:#ffffff;fill-opacity:1"/>
        <path
                class="cls-1"
                d="m 270.32,125.08 c -7.93,0 -14.38,-6.48 -14.38,-14.45 V 93.77 c 0,-1.99 -1.5,-3.56 -3.41,-3.56 -1.91,0 -3.42,1.56 -3.42,3.56 v 16.86 c 0,7.97 -6.45,14.45 -14.37,14.45 -1.6,0 -2.9,-1.3 -2.9,-2.9 0,-1.6 1.3,-2.9 2.9,-2.9 4.73,0 8.58,-3.88 8.58,-8.65 V 93.77 c 0,-5.16 4.13,-9.35 9.21,-9.35 5.08,0 9.21,4.2 9.21,9.35 v 16.86 c 0,4.77 3.85,8.65 8.58,8.65 4.73,0 8.58,-3.88 8.58,-8.65 0,-1.6 1.3,-2.9 2.9,-2.9 1.6,0 2.9,1.3 2.9,2.9 0,7.97 -6.45,14.45 -14.37,14.45 z"
                id="path7"
                style="fill:#ffffff;fill-opacity:1"/>
        <path
                class="cls-2"
                d="m 159.84,179.04 c -39.81,0 -72.21,-32.39 -72.21,-72.2 0,-17.29 6.21,-34.03 17.48,-47.11 11.16,-12.95 26.55,-21.54 43.34,-24.2 1.51,-0.24 3.35,0.3 4.69,1.37 1.27,1.01 2.03,2.43 2.13,4 0.14,2.08 0.3,5.9 0.42,10.79 2.92,-0.2 6.11,-0.2 9.03,0 0.06,-4.57 0.17,-8.24 0.32,-10.5 0.11,-1.67 0.91,-3.17 2.25,-4.22 1.35,-1.07 3.11,-1.57 4.59,-1.32 34.85,5.86 60.15,35.8 60.15,71.2 0,39.81 -32.39,72.2 -72.21,72.2 z M 149.21,41.27 c -15.38,2.47 -29.48,10.37 -39.71,22.24 -10.37,12.03 -16.08,27.42 -16.08,43.33 0,36.62 29.79,66.41 66.41,66.41 36.62,0 66.41,-29.79 66.41,-66.41 0,-32.49 -23.17,-59.99 -55.12,-65.45 -0.11,0.04 -0.25,0.13 -0.29,0.18 -0.16,2.43 -0.27,6.2 -0.33,10.81 24.47,4.23 35.27,23.21 39.7,35.08 7.86,21.07 5.95,47.19 -4.07,55.95 -1.85,1.71 -4.92,2.02 -9.38,0.93 -9.6,-2.34 -25.45,-11.3 -28.44,-20.02 -2.76,-8.05 -3.71,-44.14 -3.63,-66.83 -2.86,-0.23 -6,-0.23 -8.87,-0.01 0.38,22.43 0,58.46 -3.88,67.09 -4.12,9.16 -19.03,16.92 -27.81,19.28 -4.56,1.23 -7.72,1.15 -9.65,-0.24 -0.07,-0.05 -0.14,-0.11 -0.21,-0.17 -10.07,-8.73 -11.99,-34.89 -4.12,-55.99 4.44,-11.88 15.26,-30.9 39.81,-35.1 -0.12,-4.51 -0.27,-8.3 -0.45,-10.96 -0.08,-0.05 -0.2,-0.11 -0.29,-0.13 z m 21.25,17.01 c -0.05,22.56 0.97,57.27 3.34,64.16 1.48,4.32 9.48,10.47 18.61,14.32 5.79,2.44 9.1,2.62 9.87,2.32 0,0 0,0 0.01,0 7.33,-6.36 10.02,-29.41 2.48,-49.59 -3.9,-10.44 -13.29,-27.04 -34.31,-31.2 z m 31.73,80.88 z m -84.35,-0.29 c 3.64,1.11 24.59,-7.29 28.81,-16.68 3.23,-7.17 3.8,-41.18 3.43,-63.95 -21.16,4.09 -30.6,20.76 -34.5,31.23 -7.46,19.98 -4.9,42.76 2.26,49.39 z m -0.11,-0.04 z m 53.46,-97.47 z"
                id="path8"
                style="fill:#3edad8;fill-opacity:1"/>
    </g>
</svg>
